<svg width="24" height="24" viewBox="0 0 24 24" fill="none" xmlns="http://www.w3.org/2000/svg">
<g filter="url(#filter0_ii_1167_855)">
<path d="M3.25 9C3.25 7.47501 3.8558 6.01247 4.93414 4.93414C6.01247 3.8558 7.47501 3.25 9 3.25H16.013C16.2119 3.25 16.4027 3.32902 16.5433 3.46967C16.684 3.61032 16.763 3.80109 16.763 4C16.763 4.19891 16.684 4.38968 16.5433 4.53033C16.4027 4.67098 16.2119 4.75 16.013 4.75H9C7.87283 4.75 6.79183 5.19777 5.9948 5.9948C5.19777 6.79183 4.75 7.87283 4.75 9V16.107C4.75 16.3059 4.67098 16.4967 4.53033 16.6373C4.38968 16.778 4.19891 16.857 4 16.857C3.80109 16.857 3.61032 16.778 3.46967 16.6373C3.32902 16.4967 3.25 16.3059 3.25 16.107V9Z" fill="#708599"/>
</g>
<g filter="url(#filter1_ii_1167_855)">
<path d="M18.403 6.79302C15.1443 6.43073 11.8556 6.43073 8.59695 6.79302C8.14608 6.84328 7.72545 7.04451 7.4034 7.36402C7.08134 7.68354 6.87678 8.10256 6.82295 8.55302C6.43857 11.8395 6.43857 15.1596 6.82295 18.446C6.87661 18.8965 7.08112 19.3157 7.4032 19.6352C7.72529 19.9548 8.14602 20.1559 8.59695 20.206C11.838 20.569 15.162 20.569 18.403 20.206C18.8539 20.1559 19.2746 19.9548 19.5967 19.6352C19.9188 19.3157 20.1233 18.8965 20.177 18.446C20.5614 15.1596 20.5614 11.8395 20.177 8.55302C20.1231 8.10256 19.9186 7.68354 19.5965 7.36402C19.2745 7.04451 18.8538 6.84328 18.403 6.79302Z" stroke="url(#paint0_linear_1167_855)" stroke-opacity="0.8" stroke-width="2" stroke-linecap="round" stroke-linejoin="round"/>
</g>
<defs>
<filter id="filter0_ii_1167_855" x="2.75" y="2.75" width="14.5129" height="14.607" filterUnits="userSpaceOnUse" color-interpolation-filters="sRGB">
<feFlood flood-opacity="0" result="BackgroundImageFix"/>
<feBlend mode="normal" in="SourceGraphic" in2="BackgroundImageFix" result="shape"/>
<feColorMatrix in="SourceAlpha" type="matrix" values="0 0 0 0 0 0 0 0 0 0 0 0 0 0 0 0 0 0 127 0" result="hardAlpha"/>
<feOffset dx="-0.5" dy="-0.5"/>
<feGaussianBlur stdDeviation="0.25"/>
<feComposite in2="hardAlpha" operator="arithmetic" k2="-1" k3="1"/>
<feColorMatrix type="matrix" values="0 0 0 0 1 0 0 0 0 1 0 0 0 0 1 0 0 0 0.4 0"/>
<feBlend mode="normal" in2="shape" result="effect1_innerShadow_1167_855"/>
<feColorMatrix in="SourceAlpha" type="matrix" values="0 0 0 0 0 0 0 0 0 0 0 0 0 0 0 0 0 0 127 0" result="hardAlpha"/>
<feOffset dx="0.5" dy="0.5"/>
<feGaussianBlur stdDeviation="0.25"/>
<feComposite in2="hardAlpha" operator="arithmetic" k2="-1" k3="1"/>
<feColorMatrix type="matrix" values="0 0 0 0 0.127604 0 0 0 0 0.267969 0 0 0 0 0.408333 0 0 0 0.4 0"/>
<feBlend mode="normal" in2="effect1_innerShadow_1167_855" result="effect2_innerShadow_1167_855"/>
</filter>
<filter id="filter1_ii_1167_855" x="5.03467" y="5.0213" width="16.9305" height="16.957" filterUnits="userSpaceOnUse" color-interpolation-filters="sRGB">
<feFlood flood-opacity="0" result="BackgroundImageFix"/>
<feBlend mode="normal" in="SourceGraphic" in2="BackgroundImageFix" result="shape"/>
<feColorMatrix in="SourceAlpha" type="matrix" values="0 0 0 0 0 0 0 0 0 0 0 0 0 0 0 0 0 0 127 0" result="hardAlpha"/>
<feOffset dx="-0.5" dy="-0.5"/>
<feGaussianBlur stdDeviation="0.25"/>
<feComposite in2="hardAlpha" operator="arithmetic" k2="-1" k3="1"/>
<feColorMatrix type="matrix" values="0 0 0 0 1 0 0 0 0 1 0 0 0 0 1 0 0 0 0.4 0"/>
<feBlend mode="normal" in2="shape" result="effect1_innerShadow_1167_855"/>
<feColorMatrix in="SourceAlpha" type="matrix" values="0 0 0 0 0 0 0 0 0 0 0 0 0 0 0 0 0 0 127 0" result="hardAlpha"/>
<feOffset dx="0.5" dy="0.5"/>
<feGaussianBlur stdDeviation="0.25"/>
<feComposite in2="hardAlpha" operator="arithmetic" k2="-1" k3="1"/>
<feColorMatrix type="matrix" values="0 0 0 0 0.127604 0 0 0 0 0.267969 0 0 0 0 0.408333 0 0 0 0.4 0"/>
<feBlend mode="normal" in2="effect1_innerShadow_1167_855" result="effect2_innerShadow_1167_855"/>
</filter>
<linearGradient id="paint0_linear_1167_855" x1="6.53467" y1="9.429" x2="60.5215" y2="85.9106" gradientUnits="userSpaceOnUse">
<stop stop-color="#48647D"/>
<stop offset="0.234375" stop-color="#6B8299"/>
<stop offset="0.442708" stop-color="#DAE2EB"/>
<stop offset="0.682292" stop-color="#8CA2B7"/>
<stop offset="1" stop-color="#EDF2F7"/>
</linearGradient>
</defs>
</svg>
