<svg width="20" height="20" viewBox="0 0 20 20" fill="none" xmlns="http://www.w3.org/2000/svg">
<path d="M10 6.5V2H6.5C6.10218 2 5.72064 2.15804 5.43934 2.43934C5.15804 2.72064 5 3.10218 5 3.5V14.5C5 14.8978 5.15804 15.2794 5.43934 15.5607C5.72064 15.842 6.10218 16 6.5 16H14.5C14.8978 16 15.2794 15.842 15.5607 15.5607C15.842 15.2794 16 14.8978 16 14.5V8H11.5C11.1022 8 10.7206 7.84196 10.4393 7.56066C10.158 7.27936 10 6.89782 10 6.5ZM11 6.5V2.25L15.75 7H11.5C11.3674 7 11.2402 6.94732 11.1464 6.85355C11.0527 6.75979 11 6.63261 11 6.5ZM3 5C3 4.73478 3.10536 4.48043 3.29289 4.29289C3.48043 4.10536 3.73478 4 4 4V14.5C4 15.163 4.26339 15.7989 4.73223 16.2678C5.20107 16.7366 5.83696 17 6.5 17H14C14 17.2652 13.8946 17.5196 13.7071 17.7071C13.5196 17.8946 13.2652 18 13 18H6.548C5.60701 18 4.70456 17.6262 4.03919 16.9608C3.37381 16.2954 3 15.393 3 14.452V5Z" fill="#9381FF"/>
</svg>
