<svg width="16" height="18" viewBox="0 0 16 18" fill="none" xmlns="http://www.w3.org/2000/svg">
<g filter="url(#filter0_ii_1102_1547)">
<path d="M1 17H11.1818C11.8847 17 12.4545 16.2837 12.4545 15.4V10.4857M1 17V9.00004M1 17V10.4857M1 9.00004C1 8.11639 1.56982 7.40005 2.27273 7.40005H3.54544M1 9.00004V10.4857M3.54544 7.40005H11.1818C11.8847 7.40005 12.4545 8.11639 12.4545 9.00004V10.4857M3.54544 7.40005V4.20004M12.4545 10.4857L12.9103 10.5061C14.0489 10.5573 15 9.64794 15 8.50815L15 4.20004M12.4545 10.4857H1M3.54544 4.20004H15M3.54544 4.20004L3.54544 2.90912C3.54545 1.85476 4.40017 1.00003 5.45453 1V1L13 1.00004C14.1046 1.00004 15 1.89548 15 3.00005L15 3.39999L15 4.20004" stroke="url(#paint0_linear_1102_1547)" stroke-opacity="0.5" stroke-width="1.3" stroke-linecap="round" stroke-linejoin="round"/>
</g>
<defs>
<filter id="filter0_ii_1102_1547" x="-0.149994" y="-0.149994" width="16.3" height="18.3" filterUnits="userSpaceOnUse" color-interpolation-filters="sRGB">
<feFlood flood-opacity="0" result="BackgroundImageFix"/>
<feBlend mode="normal" in="SourceGraphic" in2="BackgroundImageFix" result="shape"/>
<feColorMatrix in="SourceAlpha" type="matrix" values="0 0 0 0 0 0 0 0 0 0 0 0 0 0 0 0 0 0 127 0" result="hardAlpha"/>
<feOffset dx="-0.5" dy="-0.5"/>
<feGaussianBlur stdDeviation="0.25"/>
<feComposite in2="hardAlpha" operator="arithmetic" k2="-1" k3="1"/>
<feColorMatrix type="matrix" values="0 0 0 0 1 0 0 0 0 1 0 0 0 0 1 0 0 0 0.4 0"/>
<feBlend mode="normal" in2="shape" result="effect1_innerShadow_1102_1547"/>
<feColorMatrix in="SourceAlpha" type="matrix" values="0 0 0 0 0 0 0 0 0 0 0 0 0 0 0 0 0 0 127 0" result="hardAlpha"/>
<feOffset dx="0.5" dy="0.5"/>
<feGaussianBlur stdDeviation="0.25"/>
<feComposite in2="hardAlpha" operator="arithmetic" k2="-1" k3="1"/>
<feColorMatrix type="matrix" values="0 0 0 0 0.127604 0 0 0 0 0.267969 0 0 0 0 0.408333 0 0 0 0.4 0"/>
<feBlend mode="normal" in2="effect1_innerShadow_1102_1547" result="effect2_innerShadow_1102_1547"/>
</filter>
<linearGradient id="paint0_linear_1102_1547" x1="15" y1="18.4545" x2="-1.59496" y2="6.91296" gradientUnits="userSpaceOnUse">
<stop stop-color="#2D3134"/>
<stop offset="0.234375" stop-color="#57636E"/>
<stop offset="0.442708" stop-color="#EBEFF3"/>
<stop offset="0.682292" stop-color="#AFBBC7"/>
<stop offset="1" stop-color="#768BA2"/>
</linearGradient>
</defs>
</svg>
