<svg width="24" height="24" viewBox="0 0 24 24" fill="none" xmlns="http://www.w3.org/2000/svg">
<g filter="url(#filter0_ii_1167_855)">
<path d="M3.25 9C3.25 7.47501 3.8558 6.01247 4.93414 4.93414C6.01247 3.8558 7.47501 3.25 9 3.25H16.013C16.2119 3.25 16.4027 3.32902 16.5433 3.46967C16.684 3.61032 16.763 3.80109 16.763 4C16.763 4.19891 16.684 4.38968 16.5433 4.53033C16.4027 4.67098 16.2119 4.75 16.013 4.75H9C7.87283 4.75 6.79183 5.19777 5.9948 5.9948C5.19777 6.79183 4.75 7.87283 4.75 9V16.107C4.75 16.3059 4.67098 16.4967 4.53033 16.6373C4.38968 16.778 4.19891 16.857 4 16.857C3.80109 16.857 3.61032 16.778 3.46967 16.6373C3.32902 16.4967 3.25 16.3059 3.25 16.107V9Z" stroke="url(#paint0_linear_1167_855)" stroke-opacity="0.5" stroke-width="1.3" stroke-linecap="round" stroke-linejoin="round"/>
<path d="M18.403 6.793C15.1444 6.43071 11.8556 6.43071 8.597 6.793C8.14613 6.84326 7.7255 7.04449 7.40345 7.36401C7.08139 7.68352 6.87683 8.10254 6.823 8.553C6.43862 11.8395 6.43862 15.1595 6.823 18.446C6.87666 18.8965 7.08116 19.3156 7.40325 19.6352C7.72534 19.9547 8.14606 20.1559 8.597 20.206C11.838 20.569 15.162 20.569 18.403 20.206C18.8539 20.1559 19.2747 19.9547 19.5968 19.6352C19.9188 19.3156 20.1233 18.8965 20.177 18.446C20.5614 15.1595 20.5614 11.8395 20.177 8.553C20.1232 8.10254 19.9186 7.68352 19.5966 7.36401C19.2745 7.04449 18.8539 6.84326 18.403 6.793Z" stroke="url(#paint1_linear_1167_855)" stroke-opacity="0.5" stroke-width="1.3" stroke-linecap="round" stroke-linejoin="round"/>
</g>
<defs>
<filter id="filter0_ii_1167_855" x="2.09998" y="2.09998" width="19.5154" height="19.5283" filterUnits="userSpaceOnUse" color-interpolation-filters="sRGB">
<feFlood flood-opacity="0" result="BackgroundImageFix"/>
<feBlend mode="normal" in="SourceGraphic" in2="BackgroundImageFix" result="shape"/>
<feColorMatrix in="SourceAlpha" type="matrix" values="0 0 0 0 0 0 0 0 0 0 0 0 0 0 0 0 0 0 127 0" result="hardAlpha"/>
<feOffset dx="-0.5" dy="-0.5"/>
<feGaussianBlur stdDeviation="0.25"/>
<feComposite in2="hardAlpha" operator="arithmetic" k2="-1" k3="1"/>
<feColorMatrix type="matrix" values="0 0 0 0 1 0 0 0 0 1 0 0 0 0 1 0 0 0 0.4 0"/>
<feBlend mode="normal" in2="shape" result="effect1_innerShadow_1167_855"/>
<feColorMatrix in="SourceAlpha" type="matrix" values="0 0 0 0 0 0 0 0 0 0 0 0 0 0 0 0 0 0 127 0" result="hardAlpha"/>
<feOffset dx="0.5" dy="0.5"/>
<feGaussianBlur stdDeviation="0.25"/>
<feComposite in2="hardAlpha" operator="arithmetic" k2="-1" k3="1"/>
<feColorMatrix type="matrix" values="0 0 0 0 0.127604 0 0 0 0 0.267969 0 0 0 0 0.408333 0 0 0 0.4 0"/>
<feBlend mode="normal" in2="effect1_innerShadow_1167_855" result="effect2_innerShadow_1167_855"/>
</filter>
<linearGradient id="paint0_linear_1167_855" x1="20.4653" y1="22.0445" x2="1.89999" y2="7.29904" gradientUnits="userSpaceOnUse">
<stop stop-color="#2D3134"/>
<stop offset="0.234375" stop-color="#57636E"/>
<stop offset="0.442708" stop-color="#EBEFF3"/>
<stop offset="0.682292" stop-color="#AFBBC7"/>
<stop offset="1" stop-color="#768BA2"/>
</linearGradient>
<linearGradient id="paint1_linear_1167_855" x1="20.4653" y1="22.0445" x2="1.89999" y2="7.29904" gradientUnits="userSpaceOnUse">
<stop stop-color="#2D3134"/>
<stop offset="0.234375" stop-color="#57636E"/>
<stop offset="0.442708" stop-color="#EBEFF3"/>
<stop offset="0.682292" stop-color="#AFBBC7"/>
<stop offset="1" stop-color="#768BA2"/>
</linearGradient>
</defs>
</svg>
