<svg width="32" height="35" viewBox="0 0 32 35" fill="none" xmlns="http://www.w3.org/2000/svg">
<g filter="url(#filter0_dd_1102_1559)">
<path d="M10 24C10 25.1 10.9 26 12 26H20C21.1 26 22 25.1 22 24V14C22 12.9 21.1 12 20 12H12C10.9 12 10 12.9 10 14V24ZM22 9H19.5L18.79 8.29C18.61 8.11 18.35 8 18.09 8H13.91C13.65 8 13.39 8.11 13.21 8.29L12.5 9H10C9.45 9 9 9.45 9 10C9 10.55 9.45 11 10 11H22C22.55 11 23 10.55 23 10C23 9.45 22.55 9 22 9Z" fill="url(#paint0_linear_1102_1559)"/>
<path d="M10 24C10 25.1 10.9 26 12 26H20C21.1 26 22 25.1 22 24V14C22 12.9 21.1 12 20 12H12C10.9 12 10 12.9 10 14V24ZM22 9H19.5L18.79 8.29C18.61 8.11 18.35 8 18.09 8H13.91C13.65 8 13.39 8.11 13.21 8.29L12.5 9H10C9.45 9 9 9.45 9 10C9 10.55 9.45 11 10 11H22C22.55 11 23 10.55 23 10C23 9.45 22.55 9 22 9Z" stroke="url(#paint1_linear_1102_1559)"/>
</g>
<defs>
<filter id="filter0_dd_1102_1559" x="0.5" y="0.5" width="31" height="34" filterUnits="userSpaceOnUse" color-interpolation-filters="sRGB">
<feFlood flood-opacity="0" result="BackgroundImageFix"/>
<feColorMatrix in="SourceAlpha" type="matrix" values="0 0 0 0 0 0 0 0 0 0 0 0 0 0 0 0 0 0 127 0" result="hardAlpha"/>
<feOffset dx="1" dy="1"/>
<feGaussianBlur stdDeviation="3.5"/>
<feColorMatrix type="matrix" values="0 0 0 0 0 0 0 0 0 0 0 0 0 0 0 0 0 0 0.24 0"/>
<feBlend mode="normal" in2="BackgroundImageFix" result="effect1_dropShadow_1102_1559"/>
<feColorMatrix in="SourceAlpha" type="matrix" values="0 0 0 0 0 0 0 0 0 0 0 0 0 0 0 0 0 0 127 0" result="hardAlpha"/>
<feOffset dx="-2" dy="-1"/>
<feGaussianBlur stdDeviation="3"/>
<feColorMatrix type="matrix" values="0 0 0 0 1 0 0 0 0 1 0 0 0 0 1 0 0 0 0.08 0"/>
<feBlend mode="normal" in2="effect1_dropShadow_1102_1559" result="effect2_dropShadow_1102_1559"/>
<feBlend mode="normal" in="SourceGraphic" in2="effect2_dropShadow_1102_1559" result="shape"/>
</filter>
<linearGradient id="paint0_linear_1102_1559" x1="29.4064" y1="29.375" x2="7.8344" y2="16.943" gradientUnits="userSpaceOnUse">
<stop offset="0.245118" stop-color="#545C65"/>
<stop offset="1" stop-color="#1B2129"/>
</linearGradient>
<linearGradient id="paint1_linear_1102_1559" x1="10.074" y1="12.125" x2="25.154" y2="19.8422" gradientUnits="userSpaceOnUse">
<stop offset="0.130987" stop-color="#889199"/>
<stop offset="1" stop-color="#33393D"/>
</linearGradient>
</defs>
</svg>
