<svg width="157" height="34" viewBox="0 0 157 34" fill="none" xmlns="http://www.w3.org/2000/svg">
<path d="M0 0H33.7079L56.7872 19.125L77.1335 0H108.716L93.4641 13.6607L101.862 20.3393L104.161 18.2143C107.197 23.9821 120.802 22.1607 119.952 26.4107C119.344 29.4464 115.093 28.5357 112.056 28.5357L119.041 34H86.8511L78.2126 27.3214L70.7563 34H40.3888L0 0Z" fill="#F6F6F6"/>
<path d="M116.308 16.3929C117.522 16.4766 129.062 18.2143 128.151 25.8036L157 0H125.418L120.255 5.16071C121.956 4.43214 125.418 5.97024 126.936 6.98214L124.507 13.0536C110.841 6.67857 107.501 15.7857 116.308 16.3929Z" fill="#F6F6F6"/>
</svg>
