<svg width="161" height="36" viewBox="0 0 161 36" fill="none" xmlns="http://www.w3.org/2000/svg">
<path d="M2 1H35.7079L58.7872 20.125L79.1335 1H110.716L95.4641 14.6607L103.862 21.3393L106.161 19.2143C109.197 24.9821 122.802 23.1607 121.952 27.4107C121.344 30.4464 117.093 29.5357 114.056 29.5357L121.041 35H88.8511L80.2126 28.3214L72.7563 35H42.3888L2 1Z" fill="#2D2D2D"/>
<path d="M118.308 17.3929C119.522 17.4766 131.062 19.2143 130.151 26.8036L159 1H127.418L122.255 6.16071C123.956 5.43214 127.418 6.97024 128.936 7.98214L126.507 14.0536C112.841 7.67857 109.501 16.7857 118.308 17.3929Z" fill="#2D2D2D"/>
<path d="M58.7872 20.125L35.7079 1H2L42.3888 35M58.7872 20.125L42.3888 35M58.7872 20.125L79.1335 1H110.716L95.4641 14.6607M42.3888 35H72.7563L80.2126 28.3214M80.2126 28.3214L88.8511 35H121.041L114.056 29.5357M80.2126 28.3214L95.4641 14.6607M95.4641 14.6607L103.862 21.3393M103.862 21.3393L106.161 19.2143C109.197 24.9821 122.802 23.1607 121.952 27.4107C121.344 30.4464 117.093 29.5357 114.056 29.5357M103.862 21.3393L114.056 29.5357M130.151 26.8036C131.062 19.2143 119.522 17.4766 118.308 17.3929C109.501 16.7857 112.841 7.67857 126.507 14.0536L128.936 7.98214C127.418 6.97024 123.956 5.43214 122.255 6.16071L127.418 1H159L130.151 26.8036Z" stroke="#212121"/>
</svg>
