<svg width="191" height="69" viewBox="0 0 191 69" fill="none" xmlns="http://www.w3.org/2000/svg">
<g filter="url(#filter0_dd_1102_1560)">
<path d="M144.655 20.2206H176L150.958 42.6908C150.692 41.6603 150.227 40.7879 149.564 40.0734C148.485 38.8525 147.193 37.9723 145.688 37.4329C144.212 36.865 142.338 36.3397 140.067 35.8571C138.051 35.4312 136.588 35.0195 135.68 34.622C134.771 34.2245 134.317 33.6282 134.317 32.8332C134.317 32.0383 134.7 31.3994 135.467 30.9167C136.234 30.4057 137.454 30.1501 139.13 30.1501C141.799 30.1501 144.553 30.9167 147.392 32.4499L149.99 26.1894C148.542 25.3376 146.867 24.6987 144.964 24.2728C143.537 23.9321 142.094 23.7191 140.636 23.634L144.655 20.2206Z" fill="#F6F6F6"/>
<path d="M126.3 35.809L105.165 53.7597L131.936 53.9308C131.621 53.8601 131.307 53.7838 130.995 53.7019C128.724 53.1056 126.878 52.3106 125.459 51.3169L128.227 45.0989C129.561 45.9791 131.109 46.6889 132.869 47.2283C134.629 47.7678 136.361 48.0375 138.065 48.0375C141.302 48.0375 142.92 47.2283 142.92 45.61C142.92 44.7582 142.452 44.1335 141.515 43.736C140.606 43.3102 139.13 42.8701 137.085 42.4158C134.842 41.9331 132.968 41.422 131.464 40.8826C129.959 40.3147 128.667 39.4204 127.588 38.1995C126.997 37.5305 126.568 36.7337 126.3 35.809Z" fill="#F6F6F6"/>
<path d="M80.7825 34.894L98.7221 21.5225L138.373 53.8693H105.509L80.7825 34.894Z" fill="url(#paint0_linear_1102_1560)"/>
<path d="M19 20H52.9369L91.9255 52.6565L59.7242 53.8694L19 20Z" fill="url(#paint1_linear_1102_1560)"/>
<path d="M127.9 20.2206H96.6535L59.7102 53.865H90.4046L127.9 20.2206Z" fill="#F6F6F6"/>
</g>
<defs>
<filter id="filter0_dd_1102_1560" x="0.185314" y="0.140054" width="190.448" height="68.4244" filterUnits="userSpaceOnUse" color-interpolation-filters="sRGB">
<feFlood flood-opacity="0" result="BackgroundImageFix"/>
<feColorMatrix in="SourceAlpha" type="matrix" values="0 0 0 0 0 0 0 0 0 0 0 0 0 0 0 0 0 0 127 0" result="hardAlpha"/>
<feOffset dx="4.18104" dy="4.18104"/>
<feGaussianBlur stdDeviation="5.2263"/>
<feColorMatrix type="matrix" values="0 0 0 0 0.158333 0 0 0 0 0.158333 0 0 0 0 0.158333 0 0 0 0.25 0"/>
<feBlend mode="normal" in2="BackgroundImageFix" result="effect1_dropShadow_1102_1560"/>
<feColorMatrix in="SourceAlpha" type="matrix" values="0 0 0 0 0 0 0 0 0 0 0 0 0 0 0 0 0 0 127 0" result="hardAlpha"/>
<feOffset dx="-3.13578" dy="-4.18104"/>
<feGaussianBlur stdDeviation="7.83945"/>
<feColorMatrix type="matrix" values="0 0 0 0 0 0 0 0 0 0 0 0 0 0 0 0 0 0 0.25 0"/>
<feBlend mode="normal" in2="effect1_dropShadow_1102_1560" result="effect2_dropShadow_1102_1560"/>
<feBlend mode="normal" in="SourceGraphic" in2="effect2_dropShadow_1102_1560" result="shape"/>
</filter>
<linearGradient id="paint0_linear_1102_1560" x1="19" y1="36.1669" x2="176" y2="36.1669" gradientUnits="userSpaceOnUse">
<stop stop-color="#ECE9E6"/>
<stop offset="1" stop-color="white"/>
</linearGradient>
<linearGradient id="paint1_linear_1102_1560" x1="19" y1="36.9654" x2="176" y2="36.9654" gradientUnits="userSpaceOnUse">
<stop stop-color="#ECE9E6"/>
<stop offset="1" stop-color="white"/>
</linearGradient>
</defs>
</svg>
